<mxfile host="app.diagrams.net" modified="2024-03-17T13:21:33.809Z" agent="Mozilla/5.0 (Windows NT 10.0; Win64; x64) AppleWebKit/537.36 (KHTML, like Gecko) Chrome/122.0.0.0 Safari/537.36" etag="hzas2mOlb_f2iSbU0tBL" version="24.0.7" type="device">
  <diagram id="prtHgNgQTEPvFCAcTncT" name="Page-1">
    <mxGraphModel dx="3237" dy="1169" grid="1" gridSize="10" guides="1" tooltips="1" connect="1" arrows="1" fold="1" page="1" pageScale="1" pageWidth="827" pageHeight="1169" math="0" shadow="0">
      <root>
        <mxCell id="0" />
        <mxCell id="1" parent="0" />
        <mxCell id="ZKaJSZbncdzUn9loYHFx-1" value="" style="rounded=0;whiteSpace=wrap;html=1;" vertex="1" parent="1">
          <mxGeometry x="130" y="150" width="10" height="800" as="geometry" />
        </mxCell>
        <mxCell id="ZKaJSZbncdzUn9loYHFx-2" value="" style="rounded=0;whiteSpace=wrap;html=1;" vertex="1" parent="1">
          <mxGeometry x="370" y="150" width="10" height="800" as="geometry" />
        </mxCell>
        <mxCell id="ZKaJSZbncdzUn9loYHFx-3" value="" style="rounded=0;whiteSpace=wrap;html=1;" vertex="1" parent="1">
          <mxGeometry x="610" y="150" width="10" height="800" as="geometry" />
        </mxCell>
        <mxCell id="ZKaJSZbncdzUn9loYHFx-4" value="Администратор" style="shape=umlActor;verticalLabelPosition=bottom;verticalAlign=top;html=1;outlineConnect=0;" vertex="1" parent="1">
          <mxGeometry x="120" y="70" width="30" height="60" as="geometry" />
        </mxCell>
        <mxCell id="ZKaJSZbncdzUn9loYHFx-5" value="" style="group" vertex="1" connectable="0" parent="1">
          <mxGeometry x="322.5" y="70" width="105" height="40" as="geometry" />
        </mxCell>
        <mxCell id="ZKaJSZbncdzUn9loYHFx-6" value="" style="rounded=0;whiteSpace=wrap;html=1;" vertex="1" parent="ZKaJSZbncdzUn9loYHFx-5">
          <mxGeometry width="105" height="40" as="geometry" />
        </mxCell>
        <mxCell id="ZKaJSZbncdzUn9loYHFx-7" value=":Устройство" style="text;html=1;align=center;verticalAlign=middle;resizable=0;points=[];autosize=1;strokeColor=none;fillColor=none;" vertex="1" parent="ZKaJSZbncdzUn9loYHFx-5">
          <mxGeometry x="7.5" y="5" width="90" height="30" as="geometry" />
        </mxCell>
        <mxCell id="ZKaJSZbncdzUn9loYHFx-8" value="" style="group" vertex="1" connectable="0" parent="1">
          <mxGeometry x="562.5" y="70" width="105" height="40" as="geometry" />
        </mxCell>
        <mxCell id="ZKaJSZbncdzUn9loYHFx-9" value="" style="rounded=0;whiteSpace=wrap;html=1;" vertex="1" parent="ZKaJSZbncdzUn9loYHFx-8">
          <mxGeometry width="105" height="40" as="geometry" />
        </mxCell>
        <mxCell id="ZKaJSZbncdzUn9loYHFx-10" value=":Сервер" style="text;html=1;align=center;verticalAlign=middle;resizable=0;points=[];autosize=1;strokeColor=none;fillColor=none;" vertex="1" parent="ZKaJSZbncdzUn9loYHFx-8">
          <mxGeometry x="17.5" y="5" width="70" height="30" as="geometry" />
        </mxCell>
        <mxCell id="ZKaJSZbncdzUn9loYHFx-11" value="" style="endArrow=none;dashed=1;html=1;rounded=0;entryX=0.5;entryY=1;entryDx=0;entryDy=0;exitX=0.5;exitY=0;exitDx=0;exitDy=0;" edge="1" parent="1" source="ZKaJSZbncdzUn9loYHFx-2" target="ZKaJSZbncdzUn9loYHFx-6">
          <mxGeometry width="50" height="50" relative="1" as="geometry">
            <mxPoint x="440" y="200" as="sourcePoint" />
            <mxPoint x="490" y="150" as="targetPoint" />
          </mxGeometry>
        </mxCell>
        <mxCell id="ZKaJSZbncdzUn9loYHFx-12" value="" style="endArrow=none;dashed=1;html=1;rounded=0;entryX=0.5;entryY=1;entryDx=0;entryDy=0;exitX=0.5;exitY=0;exitDx=0;exitDy=0;" edge="1" parent="1" source="ZKaJSZbncdzUn9loYHFx-3" target="ZKaJSZbncdzUn9loYHFx-9">
          <mxGeometry width="50" height="50" relative="1" as="geometry">
            <mxPoint x="385" y="160" as="sourcePoint" />
            <mxPoint x="385" y="120" as="targetPoint" />
          </mxGeometry>
        </mxCell>
        <mxCell id="ZKaJSZbncdzUn9loYHFx-13" value="" style="group" vertex="1" connectable="0" parent="1">
          <mxGeometry x="185" y="170" width="140" height="30" as="geometry" />
        </mxCell>
        <mxCell id="ZKaJSZbncdzUn9loYHFx-14" value="" style="endArrow=classic;html=1;rounded=0;exitX=1.029;exitY=0.051;exitDx=0;exitDy=0;exitPerimeter=0;entryX=-0.19;entryY=0.052;entryDx=0;entryDy=0;entryPerimeter=0;" edge="1" parent="ZKaJSZbncdzUn9loYHFx-13" source="ZKaJSZbncdzUn9loYHFx-1" target="ZKaJSZbncdzUn9loYHFx-2">
          <mxGeometry width="50" height="50" relative="1" as="geometry">
            <mxPoint x="-5" y="80" as="sourcePoint" />
            <mxPoint x="45" y="30" as="targetPoint" />
          </mxGeometry>
        </mxCell>
        <mxCell id="ZKaJSZbncdzUn9loYHFx-15" value="Открыть приложение" style="text;html=1;align=center;verticalAlign=middle;resizable=0;points=[];autosize=1;strokeColor=none;fillColor=none;" vertex="1" parent="ZKaJSZbncdzUn9loYHFx-13">
          <mxGeometry width="140" height="30" as="geometry" />
        </mxCell>
        <mxCell id="ZKaJSZbncdzUn9loYHFx-16" value="" style="endArrow=none;html=1;rounded=0;" edge="1" parent="1">
          <mxGeometry width="50" height="50" relative="1" as="geometry">
            <mxPoint y="260" as="sourcePoint" />
            <mxPoint x="720" y="260" as="targetPoint" />
          </mxGeometry>
        </mxCell>
        <mxCell id="ZKaJSZbncdzUn9loYHFx-17" value="" style="group" vertex="1" connectable="0" parent="1">
          <mxGeometry x="185" y="275" width="180" height="40" as="geometry" />
        </mxCell>
        <mxCell id="ZKaJSZbncdzUn9loYHFx-18" value="" style="endArrow=classic;html=1;rounded=0;exitX=1.267;exitY=0.202;exitDx=0;exitDy=0;exitPerimeter=0;entryX=-0.267;entryY=0.203;entryDx=0;entryDy=0;entryPerimeter=0;" edge="1" parent="ZKaJSZbncdzUn9loYHFx-17" source="ZKaJSZbncdzUn9loYHFx-1" target="ZKaJSZbncdzUn9loYHFx-2">
          <mxGeometry width="50" height="50" relative="1" as="geometry">
            <mxPoint x="55" y="105" as="sourcePoint" />
            <mxPoint x="105" y="55" as="targetPoint" />
          </mxGeometry>
        </mxCell>
        <mxCell id="ZKaJSZbncdzUn9loYHFx-19" value="Открыть страницу со списком жалоб" style="text;html=1;align=center;verticalAlign=middle;resizable=0;points=[];autosize=1;strokeColor=none;fillColor=none;" vertex="1" parent="ZKaJSZbncdzUn9loYHFx-17">
          <mxGeometry x="-50" y="5" width="230" height="30" as="geometry" />
        </mxCell>
        <mxCell id="ZKaJSZbncdzUn9loYHFx-20" value="" style="group" vertex="1" connectable="0" parent="1">
          <mxGeometry x="185" y="196" width="150" height="40" as="geometry" />
        </mxCell>
        <mxCell id="ZKaJSZbncdzUn9loYHFx-21" value="" style="endArrow=classic;html=1;rounded=0;entryX=1.105;entryY=0.101;entryDx=0;entryDy=0;entryPerimeter=0;exitX=-0.229;exitY=0.102;exitDx=0;exitDy=0;exitPerimeter=0;dashed=1;" edge="1" parent="ZKaJSZbncdzUn9loYHFx-20" source="ZKaJSZbncdzUn9loYHFx-2" target="ZKaJSZbncdzUn9loYHFx-1">
          <mxGeometry width="50" height="50" relative="1" as="geometry">
            <mxPoint x="90" y="74" as="sourcePoint" />
            <mxPoint x="140" y="24" as="targetPoint" />
          </mxGeometry>
        </mxCell>
        <mxCell id="ZKaJSZbncdzUn9loYHFx-22" value="Отобразить главную&lt;div&gt;страницу приложения&lt;/div&gt;" style="text;html=1;align=center;verticalAlign=middle;resizable=0;points=[];autosize=1;strokeColor=none;fillColor=none;" vertex="1" parent="ZKaJSZbncdzUn9loYHFx-20">
          <mxGeometry width="150" height="40" as="geometry" />
        </mxCell>
        <mxCell id="ZKaJSZbncdzUn9loYHFx-23" value="" style="group" vertex="1" connectable="0" parent="1">
          <mxGeometry x="185" y="430" width="200" height="40" as="geometry" />
        </mxCell>
        <mxCell id="ZKaJSZbncdzUn9loYHFx-24" value="" style="group" vertex="1" connectable="0" parent="ZKaJSZbncdzUn9loYHFx-23">
          <mxGeometry width="200" height="40" as="geometry" />
        </mxCell>
        <mxCell id="ZKaJSZbncdzUn9loYHFx-25" value="Отобразить страницу со списком жалоб" style="text;html=1;align=center;verticalAlign=middle;resizable=0;points=[];autosize=1;strokeColor=none;fillColor=none;" vertex="1" parent="ZKaJSZbncdzUn9loYHFx-24">
          <mxGeometry x="-50" y="5" width="250" height="30" as="geometry" />
        </mxCell>
        <mxCell id="ZKaJSZbncdzUn9loYHFx-26" value="" style="endArrow=classic;html=1;rounded=0;entryX=1;entryY=0.25;entryDx=0;entryDy=0;exitX=0;exitY=0.25;exitDx=0;exitDy=0;dashed=1;" edge="1" parent="1">
          <mxGeometry width="50" height="50" relative="1" as="geometry">
            <mxPoint x="370" y="470.0000000000007" as="sourcePoint" />
            <mxPoint x="140.0000000000001" y="470" as="targetPoint" />
          </mxGeometry>
        </mxCell>
        <mxCell id="ZKaJSZbncdzUn9loYHFx-27" value="" style="rounded=0;whiteSpace=wrap;html=1;" vertex="1" parent="1">
          <mxGeometry x="375" y="380" width="10" height="40" as="geometry" />
        </mxCell>
        <mxCell id="ZKaJSZbncdzUn9loYHFx-28" value="" style="edgeStyle=segmentEdgeStyle;endArrow=classic;html=1;curved=0;rounded=0;endSize=8;startSize=8;sourcePerimeterSpacing=0;targetPerimeterSpacing=0;exitX=1.3;exitY=0.236;exitDx=0;exitDy=0;exitPerimeter=0;entryX=1;entryY=0.5;entryDx=0;entryDy=0;" edge="1" parent="1" source="ZKaJSZbncdzUn9loYHFx-2" target="ZKaJSZbncdzUn9loYHFx-27">
          <mxGeometry width="100" relative="1" as="geometry">
            <mxPoint x="370" y="330" as="sourcePoint" />
            <mxPoint x="390" y="400" as="targetPoint" />
            <Array as="points">
              <mxPoint x="420" y="339" />
              <mxPoint x="420" y="400" />
            </Array>
          </mxGeometry>
        </mxCell>
        <mxCell id="ZKaJSZbncdzUn9loYHFx-29" value="Открыть страницу&amp;nbsp;&lt;div&gt;со списком жалоб&lt;br&gt;&lt;/div&gt;" style="text;html=1;align=center;verticalAlign=middle;resizable=0;points=[];autosize=1;strokeColor=none;fillColor=none;" vertex="1" parent="1">
          <mxGeometry x="422.5" y="350" width="130" height="40" as="geometry" />
        </mxCell>
        <mxCell id="ZKaJSZbncdzUn9loYHFx-30" value="" style="endArrow=classic;html=1;rounded=0;exitX=1;exitY=0.5;exitDx=0;exitDy=0;entryX=0;entryY=0.5;entryDx=0;entryDy=0;" edge="1" parent="1" source="ZKaJSZbncdzUn9loYHFx-1" target="ZKaJSZbncdzUn9loYHFx-2">
          <mxGeometry width="50" height="50" relative="1" as="geometry">
            <mxPoint x="200" y="560" as="sourcePoint" />
            <mxPoint x="250" y="510" as="targetPoint" />
          </mxGeometry>
        </mxCell>
        <mxCell id="ZKaJSZbncdzUn9loYHFx-31" value="Выбрать жалобу" style="text;html=1;align=center;verticalAlign=middle;resizable=0;points=[];autosize=1;strokeColor=none;fillColor=none;" vertex="1" parent="1">
          <mxGeometry x="190" y="520" width="120" height="30" as="geometry" />
        </mxCell>
        <mxCell id="ZKaJSZbncdzUn9loYHFx-32" value="" style="rounded=0;whiteSpace=wrap;html=1;" vertex="1" parent="1">
          <mxGeometry x="615" y="720.04" width="10" height="40" as="geometry" />
        </mxCell>
        <mxCell id="ZKaJSZbncdzUn9loYHFx-33" value="" style="edgeStyle=segmentEdgeStyle;endArrow=classic;html=1;curved=0;rounded=0;endSize=8;startSize=8;sourcePerimeterSpacing=0;targetPerimeterSpacing=0;entryX=1;entryY=0.5;entryDx=0;entryDy=0;exitX=1.033;exitY=0.577;exitDx=0;exitDy=0;exitPerimeter=0;" edge="1" parent="1">
          <mxGeometry width="100" relative="1" as="geometry">
            <mxPoint x="620.3299999999999" y="711.6399999999999" as="sourcePoint" />
            <mxPoint x="627" y="751.04" as="targetPoint" />
            <Array as="points">
              <mxPoint x="620" y="710.04" />
              <mxPoint x="662" y="710.04" />
              <mxPoint x="662" y="751.04" />
            </Array>
          </mxGeometry>
        </mxCell>
        <mxCell id="ZKaJSZbncdzUn9loYHFx-34" value="Внести&lt;span style=&quot;background-color: initial;&quot;&gt;&amp;nbsp;решение&lt;/span&gt;&lt;div&gt;&lt;span style=&quot;background-color: initial;&quot;&gt;по жалобе в бд&lt;/span&gt;&lt;/div&gt;" style="text;html=1;align=center;verticalAlign=middle;resizable=0;points=[];autosize=1;strokeColor=none;fillColor=none;" vertex="1" parent="1">
          <mxGeometry x="650" y="710" width="120" height="40" as="geometry" />
        </mxCell>
        <mxCell id="ZKaJSZbncdzUn9loYHFx-35" value="" style="endArrow=classic;html=1;rounded=0;exitX=-0.3;exitY=0.8;exitDx=0;exitDy=0;exitPerimeter=0;dashed=1;" edge="1" parent="1" source="ZKaJSZbncdzUn9loYHFx-2">
          <mxGeometry width="50" height="50" relative="1" as="geometry">
            <mxPoint x="260" y="840" as="sourcePoint" />
            <mxPoint x="140" y="790" as="targetPoint" />
          </mxGeometry>
        </mxCell>
        <mxCell id="ZKaJSZbncdzUn9loYHFx-62" value="Отобразить полную&amp;nbsp;&lt;div&gt;информацию о жалобе&lt;/div&gt;" style="text;html=1;align=center;verticalAlign=middle;resizable=0;points=[];autosize=1;strokeColor=none;fillColor=none;" vertex="1" parent="1">
          <mxGeometry x="173.25" y="580" width="150" height="40" as="geometry" />
        </mxCell>
        <mxCell id="ZKaJSZbncdzUn9loYHFx-63" value="" style="endArrow=classic;html=1;rounded=0;exitX=-0.367;exitY=0.668;exitDx=0;exitDy=0;exitPerimeter=0;entryX=1.167;entryY=0.669;entryDx=0;entryDy=0;entryPerimeter=0;dashed=1;" edge="1" parent="1">
          <mxGeometry width="50" height="50" relative="1" as="geometry">
            <mxPoint x="366.75" y="619" as="sourcePoint" />
            <mxPoint x="142.75" y="620" as="targetPoint" />
          </mxGeometry>
        </mxCell>
        <mxCell id="ZKaJSZbncdzUn9loYHFx-64" value="Принять решение по жалобе" style="text;html=1;align=center;verticalAlign=middle;resizable=0;points=[];autosize=1;strokeColor=none;fillColor=none;" vertex="1" parent="1">
          <mxGeometry x="151" y="640" width="190" height="30" as="geometry" />
        </mxCell>
        <mxCell id="ZKaJSZbncdzUn9loYHFx-65" value="" style="edgeStyle=none;orthogonalLoop=1;jettySize=auto;html=1;rounded=0;exitX=1.176;exitY=0.901;exitDx=0;exitDy=0;exitPerimeter=0;entryX=-0.424;entryY=0.9;entryDx=0;entryDy=0;entryPerimeter=0;" edge="1" parent="1">
          <mxGeometry width="100" relative="1" as="geometry">
            <mxPoint x="143" y="671" as="sourcePoint" />
            <mxPoint x="367" y="670" as="targetPoint" />
            <Array as="points" />
          </mxGeometry>
        </mxCell>
        <mxCell id="ZKaJSZbncdzUn9loYHFx-66" value="Передать решение по жалобе" style="text;html=1;align=center;verticalAlign=middle;resizable=0;points=[];autosize=1;strokeColor=none;fillColor=none;" vertex="1" parent="1">
          <mxGeometry x="388" y="670" width="190" height="30" as="geometry" />
        </mxCell>
        <mxCell id="ZKaJSZbncdzUn9loYHFx-67" value="" style="endArrow=classic;html=1;rounded=0;exitX=1.167;exitY=0.549;exitDx=0;exitDy=0;exitPerimeter=0;entryX=-0.367;entryY=0.549;entryDx=0;entryDy=0;entryPerimeter=0;" edge="1" parent="1">
          <mxGeometry width="50" height="50" relative="1" as="geometry">
            <mxPoint x="380" y="699" as="sourcePoint" />
            <mxPoint x="604" y="699" as="targetPoint" />
          </mxGeometry>
        </mxCell>
        <mxCell id="ZKaJSZbncdzUn9loYHFx-68" value="" style="endArrow=classic;html=1;rounded=0;exitX=-0.3;exitY=0.8;exitDx=0;exitDy=0;exitPerimeter=0;dashed=1;" edge="1" parent="1">
          <mxGeometry width="50" height="50" relative="1" as="geometry">
            <mxPoint x="607" y="780" as="sourcePoint" />
            <mxPoint x="380" y="780" as="targetPoint" />
          </mxGeometry>
        </mxCell>
        <mxCell id="ZKaJSZbncdzUn9loYHFx-69" value="Подтвердить успешность&amp;nbsp;&lt;div&gt;внесения решения в бд&lt;/div&gt;" style="text;html=1;align=center;verticalAlign=middle;resizable=0;points=[];autosize=1;strokeColor=none;fillColor=none;" vertex="1" parent="1">
          <mxGeometry x="412.5" y="740" width="170" height="40" as="geometry" />
        </mxCell>
        <mxCell id="ZKaJSZbncdzUn9loYHFx-70" value="" style="group" vertex="1" connectable="0" parent="1">
          <mxGeometry x="167.5" y="750" width="175" height="40" as="geometry" />
        </mxCell>
        <mxCell id="ZKaJSZbncdzUn9loYHFx-71" value="Уведомить об успешности&lt;div&gt;&lt;span style=&quot;background-color: initial;&quot;&gt;вынесения решения по жалобе&amp;nbsp;&lt;/span&gt;&lt;span style=&quot;background-color: initial; color: rgba(0, 0, 0, 0); font-family: monospace; font-size: 0px; text-align: start;&quot;&gt;%3CmxGraphModel%3E%3Croot%3E%3CmxCell%20id%3D%220%22%2F%3E%3CmxCell%20id%3D%221%22%20parent%3D%220%22%2F%3E%3CmxCell%20id%3D%222%22%20value%3D%22%D0%A3%D0%B2%D0%B5%D0%B4%D0%BE%D0%BC%D0%B8%D1%82%D1%8C%20%D0%BE%D0%B1%26amp%3Bnbsp%3B%26lt%3Bspan%20style%3D%26quot%3Bbackground-color%3A%20initial%3B%26quot%3B%26gt%3B%D1%83%D1%81%D0%BF%D0%B5%D1%88%D0%BD%D0%BE%D0%BC%26lt%3B%2Fspan%26gt%3B%26lt%3Bdiv%26gt%3B%26lt%3Bspan%20style%3D%26quot%3Bbackground-color%3A%20initial%3B%26quot%3B%26gt%3B%D0%B8%D0%B7%D0%BC%D0%B5%D0%BD%D0%B5%D0%BD%D0%B8%D0%B8%20%D0%B4%D0%BE%D0%BC%D0%B0%D1%88%D0%BD%D0%B5%D0%B3%D0%BE%20%D0%B7%D0%B0%D0%B4%D0%B0%D0%BD%D0%B8%D1%8F%26lt%3B%2Fspan%26gt%3B%26lt%3B%2Fdiv%26gt%3B%22%20style%3D%22text%3Bhtml%3D1%3Balign%3Dcenter%3BverticalAlign%3Dmiddle%3Bresizable%3D0%3Bpoints%3D%5B%5D%3Bautosize%3D1%3BstrokeColor%3Dnone%3BfillColor%3Dnone%3B%22%20vertex%3D%221%22%20parent%3D%221%22%3E%3CmxGeometry%20x%3D%22-559%22%20y%3D%223135%22%20width%3D%22200%22%20height%3D%2240%22%20as%3D%22geometry%22%2F%3E%3C%2FmxCell%3E%3C%2Froot%3E%3C%2FmxGraphModel%3E&lt;/span&gt;&lt;span style=&quot;background-color: initial; color: rgba(0, 0, 0, 0); font-family: monospace; font-size: 0px; text-align: start;&quot;&gt;%3CmxGraphModel%3E%3Croot%3E%3CmxCell%20id%3D%220%22%2F%3E%3CmxCell%20id%3D%221%22%20parent%3D%220%22%2F%3E%3CmxCell%20id%3D%222%22%20value%3D%22%D0%A3%D0%B2%D0%B5%D0%B4%D0%BE%D0%BC%D0%B8%D1%82%D1%8C%20%D0%BE%D0%B1%26amp%3Bnbsp%3B%26lt%3Bspan%20style%3D%26quot%3Bbackground-color%3A%20initial%3B%26quot%3B%26gt%3B%D1%83%D1%81%D0%BF%D0%B5%D1%88%D0%BD%D0%BE%D0%BC%26lt%3B%2Fspan%26gt%3B%26lt%3Bdiv%26gt%3B%26lt%3Bspan%20style%3D%26quot%3Bbackground-color%3A%20initial%3B%26quot%3B%26gt%3B%D0%B8%D0%B7%D0%BC%D0%B5%D0%BD%D0%B5%D0%BD%D0%B8%D0%B8%20%D0%B4%D0%BE%D0%BC%D0%B0%D1%88%D0%BD%D0%B5%D0%B3%D0%BE%20%D0%B7%D0%B0%D0%B4%D0%B0%D0%BD%D0%B8%D1%8F%26lt%3B%2Fspan%26gt%3B%26lt%3B%2Fdiv%26gt%3B%22%20style%3D%22text%3Bhtml%3D1%3Balign%3Dcenter%3BverticalAlign%3Dmiddle%3Bresizable%3D0%3Bpoints%3D%5B%5D%3Bautosize%3D1%3BstrokeColor%3Dnone%3BfillColor%3Dnone%3B%22%20vertex%3D%221%22%20parent%3D%221%22%3E%3CmxGeometry%20x%3D%22-559%22%20y%3D%223135%22%20width%3D%22200%22%20height%3D%2240%22%20as%3D%22geometry%22%2F%3E%3C%2FmxCell%3E%3C%2Froot%3E%3C%2FmxGraphModel%3Eооб&amp;nbsp;&lt;/span&gt;&lt;/div&gt;" style="text;html=1;align=center;verticalAlign=middle;resizable=0;points=[];autosize=1;strokeColor=none;fillColor=none;" vertex="1" parent="ZKaJSZbncdzUn9loYHFx-70">
          <mxGeometry x="-25" width="200" height="40" as="geometry" />
        </mxCell>
        <mxCell id="ZKaJSZbncdzUn9loYHFx-72" value="" style="group" vertex="1" connectable="0" parent="1">
          <mxGeometry x="10" y="500" width="760" height="330.08" as="geometry" />
        </mxCell>
        <mxCell id="ZKaJSZbncdzUn9loYHFx-73" value="" style="group" vertex="1" connectable="0" parent="ZKaJSZbncdzUn9loYHFx-72">
          <mxGeometry width="759.9999999999999" height="330.08" as="geometry" />
        </mxCell>
        <mxCell id="ZKaJSZbncdzUn9loYHFx-74" value="" style="rounded=0;whiteSpace=wrap;html=1;fillColor=none;" vertex="1" parent="ZKaJSZbncdzUn9loYHFx-73">
          <mxGeometry width="759.9999999999999" height="330.08" as="geometry" />
        </mxCell>
        <mxCell id="ZKaJSZbncdzUn9loYHFx-75" value="loop" style="whiteSpace=wrap;html=1;fillColor=none;" vertex="1" parent="ZKaJSZbncdzUn9loYHFx-73">
          <mxGeometry width="70" height="50" as="geometry" />
        </mxCell>
      </root>
    </mxGraphModel>
  </diagram>
</mxfile>
